<?xml version="1.0" encoding="UTF-8"?>
<!DOCTYPE svg PUBLIC "-//W3C//DTD SVG 1.1//EN" "http://www.w3.org/Graphics/SVG/1.1/DTD/svg11.dtd">
<!-- Creator: CorelDRAW -->
<svg xmlns="http://www.w3.org/2000/svg" xml:space="preserve" width="210mm" height="220mm" style="shape-rendering:geometricPrecision; text-rendering:geometricPrecision; image-rendering:optimizeQuality; fill-rule:evenodd; clip-rule:evenodd"
viewBox="0 0 210 220"
 xmlns:xlink="http://www.w3.org/1999/xlink">
 <defs>
  <style type="text/css">
   <![CDATA[
    .fil0 {fill:#7A897F}
    .fil1 {fill:#BC829A}
    .fil2 {fill:#EF9BA0}
    .fil3 {fill:#F19ABE}
   ]]>
  </style>
 </defs>
 <g id="Layer_x0020_1">
  <metadata id="CorelCorpID_0Corel-Layer"/>
  <path class="fil0" d="M90.0943 133.77c-13.6231,16.1798 -41.5236,41.5984 -83.6511,76.2052l-2.9159 -4.794c19.5054,-15.531 37.1506,-30.4622 52.8352,-44.7941 13.7746,-12.5843 23.4266,-22.522 29.0566,-29.8629l4.6752 3.2458z"/>
  <path class="fil0" d="M93.3624 141.661c-25.7393,29.663 -44.4901,55.0309 -56.2536,76.105l-5.1781 -2.0974c11.6127,-20.4748 30.4644,-46.0928 56.5552,-76.9543l4.8765 2.9467z"/>
  <path class="fil0" d="M81.5484 130.974c-9.5012,10.0374 -21.8175,20.1746 -36.9493,30.3123 -15.6847,10.4368 -29.8107,17.7275 -42.2784,21.9223l-1.3068 -5.2435c11.2606,-3.6451 24.7839,-10.6863 40.5184,-21.2233 15.1823,-10.2374 26.9957,-20.0248 35.3409,-29.2637l4.6752 3.4959z"/>
  <path class="fil0" d="M86.2741 63.4081c0,0.949 -0.1009,1.8479 -0.3016,2.597 -5.9827,-13.5333 -17.7462,-20.325 -35.3409,-20.325 -6.7866,0 -12.1654,0.749 -16.1875,2.1976 13.724,21.0735 25.8901,31.6105 36.3966,31.6105 5.3788,0 8.0436,-2.1976 7.9426,-6.5917 -1.6589,-2.1475 -9.4003,-7.4411 -23.1244,-15.9303 8.5459,0.0996 18.7009,4.6442 30.4644,13.5828l0 0.5993c0,4.295 -1.5586,7.7407 -4.6253,10.3371 -3.1167,2.5468 -6.8365,3.8455 -11.2606,3.8455 -10.0042,0 -20.2595,-6.7415 -30.6657,-20.1752 -2.5133,-3.5955 -5.0772,-7.2405 -7.641,-10.836 -3.1166,-4.0951 -6.3342,-7.1415 -9.5517,-9.0891 12.3667,-3.5955 21.6673,-5.3932 27.951,-5.3932 10.2048,0 18.5501,1.9475 25.0351,5.8427 7.2895,4.3947 10.909,10.2875 10.909,17.728z"/>
  <path class="fil1" d="M132.222 97.0659c-1.8602,2.1977 -4.9263,7.191 -9.2501,14.8816 -3.3677,5.7926 -6.7361,9.8375 -10.2048,12.185 -4.5749,3.1956 -9.7525,4.794 -15.4335,4.794 -6.6857,0 -11.8133,-2.7468 -15.4833,-8.34 -3.2176,-4.794 -4.8261,-10.6367 -4.8261,-17.5281 0,-4.794 1.257,-9.7378 3.8208,-14.7813 0.8544,4.3947 3.7704,7.9401 8.6968,10.6868 4.3231,2.397 8.898,3.6451 13.8244,3.6451 7.1891,0 16.238,-2.8465 27.2474,-8.4892l1.6084 2.9461z"/>
  <path class="fil1" d="M127.245 88.4269c0,3.3955 -2.5134,6.0922 -7.5407,8.0397 -3.9212,1.4486 -7.8928,2.1977 -11.9143,2.1977 -8.7472,0 -13.1208,-3.0965 -13.1208,-9.2389 0,-4.0945 2.1619,-6.1423 6.485,-6.1423 2.6642,0 5.0273,1.5984 7.0883,4.8442 -1.6085,-0.3993 -2.916,-0.5993 -3.9717,-0.5993 -2.5638,0 -3.8707,0.8989 -3.8707,2.6465 0,1.9476 2.6642,2.8966 7.9932,2.8966 8.3452,0 12.5175,-1.648 12.5175,-4.9438 0,-3.3461 -1.8602,-6.1925 -5.5296,-8.6391 -3.7205,-2.4471 -7.2391,-3.6456 -10.7078,-3.6456 -9.5013,0 -14.3778,3.9948 -14.5791,11.985 -1.8596,-2.7467 -2.7645,-4.9939 -2.7645,-6.7416 0,-3.1962 1.7593,-5.8427 5.2785,-7.8404 3.5186,-1.9971 7.5906,-2.9962 12.2159,-2.9962 5.1277,0 10.0036,1.7977 14.7293,5.2936 5.1277,3.7954 7.6915,8.0899 7.6915,12.8839z"/>
  <path class="fil0" d="M186.113 158.19c-2.9159,-2.3469 -6.8875,-4.2443 -11.9143,-5.6929 -4.3237,-1.1985 -8.6468,-2.3469 -12.9699,-3.4952 -20.5107,-6.442 -30.766,-15.9304 -30.766,-28.415 0,-6.7415 3.2674,-11.0861 9.8527,-13.1334 12.568,7.9902 20.3599,15.8301 23.2758,23.5207 -3.7199,-2.9963 -7.3899,-5.9926 -11.0599,-8.9387 -4.6752,-3.6958 -8.6967,-6.0928 -12.0651,-7.1415 -2.6137,0.8989 -3.971,2.9963 -3.971,6.2922 0,10.537 13.6736,19.3259 40.9709,26.3175l1.9101 0.4495c0,-6.1424 -1.659,-12.6846 -4.8759,-19.6757 -3.2176,-6.991 -7.1892,-12.3348 -11.8644,-16.03 -4.6753,-3.6951 -10.6069,-5.8427 -17.8964,-6.4419 2.0609,-1.3483 4.6247,-2.0473 7.6915,-2.0473 7.239,0 13.7745,3.2959 19.5553,9.8376 5.0273,5.543 8.5465,12.1849 10.6074,19.8749 1.5586,5.8428 2.7652,14.0825 3.5192,24.7192z"/>
  <path class="fil2" d="M140.768 43.9324c0,7.0412 -1.5581,12.8839 -4.7251,17.5783 -3.7205,5.5431 -8.8981,8.3394 -15.5843,8.3394 -1.3069,0 -2.5134,-0.0997 -3.67,-0.2996 -8.2443,-1.3985 -14.6788,-5.493 -19.3042,-12.2847 -4.0215,-6.442 -8.043,-12.9341 -12.0651,-19.4757l1.7599 -2.7963c11.1602,5.6929 20.2589,8.4892 27.2468,8.4892 4.7756,0 9.4009,-1.1985 13.8244,-3.6456 4.927,-2.7462 7.7925,-6.2922 8.6973,-10.6863 2.5639,5.0936 3.8203,9.9873 3.8203,14.7813z"/>
  <path class="fil3" d="M179.075 101.261l-2.2118 2.4972c-7.5911,-1.5482 -15.0814,-3.0464 -22.5217,-4.5445 -7.8922,-1.8479 -13.9247,-6.4419 -18.1475,-13.8825 -1.7599,-3.0965 -2.6143,-6.2921 -2.6143,-9.4883 0,-7.0412 3.3683,-12.7842 10.155,-17.2786 5.982,-3.8952 12.6683,-5.8427 20.0077,-5.8427 1.5586,0 2.815,0.0501 3.67,0.1498 -4.8765,2.9962 -7.34,8.7894 -7.34,17.2285 0,9.3886 6.3342,19.7753 19.0026,31.1611z"/>
  <path class="fil2" d="M130.613 21.2605c0,1.9476 -1.0557,4.4449 -3.1172,7.4411 0,-7.8905 -4.8261,-11.8352 -14.5785,-11.8352 -4.1225,0 -7.8423,1.1985 -11.1602,3.6451 -3.3684,2.4471 -5.0274,5.2936 -5.0274,8.4898 0,3.2457 4.2733,4.8435 12.8192,4.8435 5.2286,0 7.7925,-0.9985 7.7925,-2.9461 0,-1.6479 -1.3075,-2.4967 -3.9717,-2.4967 -1.0557,0 -2.413,0.1994 -3.9716,0.5993 2.1619,-3.0966 4.5749,-4.6944 7.2391,-4.6944 4.3237,0 6.485,2.0473 6.485,6.0427 0,6.1423 -4.3736,9.1881 -13.1208,9.1881 -4.0215,0 -7.9932,-0.749 -11.9143,-2.3468 -5.1277,-1.9476 -7.6915,-4.5941 -7.6915,-8.0398 0,-4.5947 2.413,-8.7393 7.239,-12.4345 4.7762,-3.6958 9.9039,-5.5431 15.2827,-5.5431 3.67,0 7.239,0.699 10.7582,2.1971 4.6248,1.9476 6.9375,4.5941 6.9375,7.8899z"/>
  <path class="fil3" d="M193.955 76.1422c0,4.5445 -1.2569,8.9888 -3.7204,13.2832 -2.5134,4.6944 -5.4792,7.0412 -8.7971,7.0412 -3.8208,0 -7.5407,-2.6966 -11.0599,-8.0397 -3.1671,-4.994 -4.7257,-9.5379 -4.7257,-13.633 0,-5.9424 2.4635,-8.9386 7.3899,-8.9386 4.2228,0 6.3342,2.0973 6.3342,6.2921 0,2.1469 -0.7541,4.2443 -2.2118,6.2921 -0.6032,-4.5445 -1.9101,-6.8418 -3.9716,-6.8418 -1.4072,0 -2.0609,0.8493 -2.0609,2.597 0,2.6465 0.9553,5.8928 2.9159,9.6877 2.1613,4.295 4.4235,6.4419 6.7866,6.4419 1.9606,0 3.7199,-1.6975 5.2785,-5.1432 1.4072,-3.0965 2.0609,-6.0928 2.0609,-8.9392 0,-3.9948 -1.156,-7.5402 -3.5191,-10.7364 -2.3626,-3.1461 -5.0772,-4.7439 -8.2443,-4.7439 -2.0609,0 -3.8208,0.2495 -5.2785,0.7491 2.815,-3.9453 5.4798,-5.8929 7.9427,-5.8929 3.3179,0 6.6358,2.2472 9.9537,6.6915 3.268,4.4448 4.9269,9.0389 4.9269,13.8329z"/>
  <path class="fil0" d="M208.986 5.3308c-3.0667,2.2472 -5.982,5.5431 -8.6967,9.9372 -2.1618,3.7955 -4.3736,7.5909 -6.6358,11.3858 -9.8029,15.2314 -20.1087,22.8217 -30.766,22.8217 -9.8534,0 -14.8807,-4.4442 -15.1823,-13.433 11.0094,-9.9378 20.6615,-15.3812 29.0067,-16.23 -9.8029,6.3423 -16.9915,12.3348 -21.5159,17.9776 0.3016,3.8951 2.7645,5.8427 7.3899,5.8427 10.4061,0 21.9178,-11.5356 34.5862,-34.6569 -2.815,-0.6989 -5.8313,-1.0487 -8.9984,-1.0487 -21.7676,0 -35.3907,7.8905 -40.7701,23.5708 -0.402,-1.0487 -0.6033,-2.2974 -0.6033,-3.6457 0,-8.2892 4.3237,-14.8315 12.97,-19.6255 7.1892,-3.9948 15.2826,-5.9925 24.281,-5.9925 6.1834,0 14.5286,1.0487 24.9347,3.0965z"/>
 </g>
</svg>
